<svg width="60" height="60" viewBox="0 0 60 60" fill="none" xmlns="http://www.w3.org/2000/svg">
<g opacity="0.5" clip-path="url(#clip0_5299_37553)">
<path fill-rule="evenodd" clip-rule="evenodd" d="M58.23 11.1489C58.7521 11.3572 59.1997 11.7172 59.5152 12.1825C59.8307 12.6477 59.9996 13.1968 60 13.7589V46.2414C59.9996 46.8035 59.8307 47.3526 59.5152 47.8178C59.1997 48.283 58.7521 48.643 58.23 48.8514L31.0425 59.7264C30.3721 59.9945 29.6242 59.9945 28.9538 59.7264L1.76625 48.8514C1.24488 48.6424 0.79802 48.2822 0.483227 47.817C0.168434 47.3518 0.000130725 46.803 0 46.2414L0 13.7589C0.000130725 13.1972 0.168434 12.6484 0.483227 12.1832C0.79802 11.7181 1.24488 11.3578 1.76625 11.1489L27.9113 0.690117L27.9488 0.678867L28.9538 0.273867C29.6253 0.00473966 30.3747 0.00473966 31.0463 0.273867L32.055 0.678867L32.0925 0.690117L58.23 11.1489ZM39.015 7.50012L15.9375 16.7289L6.9225 13.1251L3.75 14.3964V15.8964L28.125 25.6464V55.3539L30 56.1039L31.875 55.3539V25.6501L56.25 15.9001V14.4001L53.0775 13.1289L30 22.3539L20.985 18.7501L44.0625 9.52137L39.015 7.50012Z" fill="#A6A9C7"/>
</g>
<defs>
<clipPath id="clip0_5299_37553">
<rect width="60" height="60" fill="white"/>
</clipPath>
</defs>
</svg>
